<svg id="Grupo_14" data-name="Grupo 14" xmlns="http://www.w3.org/2000/svg" width="14.038" height="12.478" viewBox="0 0 14.038 12.478">
  <path id="Path" d="M9.371,4.506C8.922,3.737,6.448-.122,2.264,0A6.711,6.711,0,0,0,0,.467L1.107,1.562A5.483,5.483,0,0,1,2.3,1.389c3.007-.076,4.983,2.487,5.607,3.464A9.52,9.52,0,0,1,6.3,6.737l1.058.977A11.033,11.033,0,0,0,9.4,5.2a.686.686,0,0,0-.028-.693Z" transform="translate(4.559 1.386)" fill="#9f9f9f"/>
  <path id="Shape" d="M11.918,12.478a.7.7,0,0,1-.5-.2l-3.946-3.9a2.484,2.484,0,0,1-1.161.289,2.451,2.451,0,0,1-1.735-.71,2.389,2.389,0,0,1-.426-2.863L.206,1.188A.69.69,0,0,1,.024.516a.7.7,0,0,1,.5-.492A.71.71,0,0,1,1.2.2L12.416,11.289a.688.688,0,0,1,0,.984A.7.7,0,0,1,11.918,12.478ZM5.259,6.19v.048a1.047,1.047,0,0,0,1.051,1.04l.042-.007Z" transform="translate(0.701)" fill="#9f9f9f"/>
  <path id="Path-2" data-name="Path" d="M7.166,6.326c-3.014.069-4.99-2.487-5.607-3.464A9.516,9.516,0,0,1,3.129.977L2.105,0A11.03,11.03,0,0,0,.094,2.515a.686.686,0,0,0,0,.693c.442.755,2.8,4.5,6.932,4.5H7.2a6.711,6.711,0,0,0,2.264-.464L8.357,6.152a5.483,5.483,0,0,1-1.192.173Z" transform="translate(0 3.377)" fill="#9f9f9f"/>
</svg>
